<?xml version="1.0" encoding="UTF-8" standalone="no"?>
<!-- Created with Inkscape (http://www.inkscape.org/) -->

<svg
   width="150mm"
   height="297mm"
   viewBox="0 0 150 297"
   version="1.1"
   id="svg136"
   sodipodi:docname="awsqey games icon.svg"
   inkscape:version="1.2.2 (732a01da63, 2022-12-09)"
   xmlns:inkscape="http://www.inkscape.org/namespaces/inkscape"
   xmlns:sodipodi="http://sodipodi.sourceforge.net/DTD/sodipodi-0.dtd"
   xmlns="http://www.w3.org/2000/svg"
   xmlns:svg="http://www.w3.org/2000/svg">
  <defs
     id="defs140">
    <filter
       inkscape:collect="always"
       style="color-interpolation-filters:sRGB"
       id="filter1634"
       x="-0.33735012"
       y="-0.16698887"
       width="1.6642956"
       height="1.3386961">
      <feGaussianBlur
         inkscape:collect="always"
         stdDeviation="16.785762"
         id="feGaussianBlur1636" />
    </filter>
    <filter
       inkscape:collect="always"
       style="color-interpolation-filters:sRGB"
       id="filter1660"
       x="-0.19981338"
       y="-0.10356092"
       width="1.3892221"
       height="1.2118402">
      <feGaussianBlur
         inkscape:collect="always"
         stdDeviation="9.378516"
         id="feGaussianBlur1658" />
    </filter>
    <filter
       inkscape:collect="always"
       style="color-interpolation-filters:sRGB"
       id="filter1666"
       x="-0.071594146"
       y="-0.044429935"
       width="1.1327836"
       height="1.0935782">
      <feGaussianBlur
         inkscape:collect="always"
         stdDeviation="2.4730783"
         id="feGaussianBlur1664" />
    </filter>
    <filter
       inkscape:collect="always"
       style="color-interpolation-filters:sRGB"
       id="filter1672"
       x="-0.036558054"
       y="-0.028272307"
       width="1.0627114"
       height="1.0612629">
      <feGaussianBlur
         inkscape:collect="always"
         stdDeviation="0.58615725"
         id="feGaussianBlur1670" />
    </filter>
    <filter
       inkscape:collect="always"
       style="color-interpolation-filters:sRGB"
       id="filter3129"
       x="-0.11634839"
       y="-0.11633429"
       width="1.2326969"
       height="1.2326673">
      <feGaussianBlur
         inkscape:collect="always"
         stdDeviation="14.821111"
         id="feGaussianBlur3131" />
    </filter>
    <filter
       inkscape:collect="always"
       style="color-interpolation-filters:sRGB"
       id="filter3157"
       x="-0.062808678"
       y="-0.06280185"
       width="1.1256175"
       height="1.1256024">
      <feGaussianBlur
         inkscape:collect="always"
         stdDeviation="7.6027211"
         id="feGaussianBlur3155" />
    </filter>
    <filter
       inkscape:collect="always"
       style="color-interpolation-filters:sRGB"
       id="filter3163"
       x="-0.011557503"
       y="-0.011557634"
       width="1.0231151"
       height="1.023114">
      <feGaussianBlur
         inkscape:collect="always"
         stdDeviation="0.69287882"
         id="feGaussianBlur3161" />
    </filter>
  </defs>
  <sodipodi:namedview
     id="namedview138"
     pagecolor="#ffffff"
     bordercolor="#666666"
     borderopacity="1.0"
     inkscape:showpageshadow="2"
     inkscape:pageopacity="0.0"
     inkscape:pagecheckerboard="0"
     inkscape:deskcolor="#d1d1d1"
     inkscape:document-units="mm"
     showgrid="false"
     inkscape:zoom="0.14866305"
     inkscape:cx="423.77712"
     inkscape:cy="961.90681"
     inkscape:window-width="1366"
     inkscape:window-height="705"
     inkscape:window-x="-8"
     inkscape:window-y="-8"
     inkscape:window-maximized="1"
     inkscape:current-layer="svg136" />
  <path
     style="opacity:1;fill:#000000;stroke:none;stroke-width:2.19254;stroke-linecap:round;stroke-linejoin:round;paint-order:markers fill stroke"
     id="path1626"
     sodipodi:type="arc"
     sodipodi:cx="78.654144"
     sodipodi:cy="142.83687"
     sodipodi:rx="173.01648"
     sodipodi:ry="173.01648"
     sodipodi:start="3.1744841"
     sodipodi:end="3.1182876"
     sodipodi:open="true"
     sodipodi:arc-type="arc"
     d="M -94.268755,137.14713 A 173.01648,173.01648 0 0 1 81.913984,-30.148899 173.01648,173.01648 0 0 1 251.66864,143.66617 173.01648,173.01648 0 0 1 80.25555,315.84594 173.01648,173.01648 0 0 1 -94.315352,146.86866" />
  <path
     style="opacity:1;fill:none;stroke:#39ffff;stroke-width:4.15363;stroke-linecap:round;stroke-linejoin:round;stroke-dasharray:none;paint-order:markers fill stroke;stroke-opacity:1;filter:url(#filter3129)"
     id="path285"
     sodipodi:type="arc"
     sodipodi:cx="78.65567"
     sodipodi:cy="142.83685"
     sodipodi:rx="161.80969"
     sodipodi:ry="161.80969"
     sodipodi:start="3.1744841"
     sodipodi:end="3.1182876"
     sodipodi:open="true"
     sodipodi:arc-type="arc"
     d="M -83.066503,137.51566 A 161.80969,161.80969 0 0 1 81.70436,-18.944116 161.80969,161.80969 0 0 1 240.4635,143.61244 161.80969,161.80969 0 0 1 80.153348,304.63961 161.80969,161.80969 0 0 1 -83.110083,146.6075" />
  <path
     style="fill:none;stroke:#39ffff;stroke-width:3.80789;stroke-linecap:butt;stroke-linejoin:miter;stroke-miterlimit:4.6;stroke-dasharray:none;stroke-opacity:1;filter:url(#filter1634)"
     d="m 66.941441,48.188083 14.398926,62.618617 -9.376064,13.72923 -10.380601,-3.01371 -5.022892,-5.02291 4.018296,-8.37146 7.032054,7.70174 5.357738,-13.39435 -2.678884,-10.380626 -15.068646,-5.022897 -12.389764,28.128153 -7.701755,9.04118 -13.059492,46.21054 4.688022,18.75214 -16.408089,13.72919 48.554527,27.79329 -10.045751,-30.807 24.444677,-16.74298 17.412695,25.44929 -6.697171,79.69643 L 139.60587,197.53519 125.87664,90.380326 92.390726,45.509259 58.235098,8.0050039 Z"
     id="path134" />
  <path
     style="fill:none;stroke:#39ffff;stroke-width:3.80789;stroke-linecap:butt;stroke-linejoin:miter;stroke-miterlimit:4.6;stroke-dasharray:none;stroke-opacity:1;filter:url(#filter1660)"
     d="m 66.941441,48.188083 14.398926,62.618617 -9.376064,13.72923 -10.380601,-3.01371 -5.022892,-5.02291 4.018296,-8.37146 7.032054,7.70174 5.357738,-13.39435 -2.678884,-10.380626 -15.068646,-5.022897 -12.389764,28.128153 -7.701755,9.04118 -13.059492,46.21054 4.688022,18.75214 -16.408089,13.72919 48.554527,27.79329 -10.045751,-30.807 24.444677,-16.74298 17.412695,25.44929 -6.697171,79.69643 L 139.60587,197.53519 125.87664,90.380326 92.390726,45.509259 58.235098,8.0050039 Z"
     id="path1656" />
  <path
     style="fill:none;stroke:#39ffff;stroke-width:3.80789;stroke-linecap:butt;stroke-linejoin:miter;stroke-miterlimit:4.6;stroke-dasharray:none;stroke-opacity:1;filter:url(#filter1666)"
     d="m 66.941441,48.188083 14.398926,62.618617 -9.376064,13.72923 -10.380601,-3.01371 -5.022892,-5.02291 4.018296,-8.37146 7.032054,7.70174 5.357738,-13.39435 -2.678884,-10.380626 -15.068646,-5.022897 -12.389764,28.128153 -7.701755,9.04118 -13.059492,46.21054 4.688022,18.75214 -16.408089,13.72919 48.554527,27.79329 -10.045751,-30.807 24.444677,-16.74298 17.412695,25.44929 -6.697171,79.69643 L 139.60587,197.53519 125.87664,90.380326 92.390726,45.509259 58.235098,8.0050039 Z"
     id="path1662" />
  <path
     style="fill:none;stroke:#39ffff;stroke-width:3.80789;stroke-linecap:butt;stroke-linejoin:miter;stroke-miterlimit:4.6;stroke-dasharray:none;stroke-opacity:1;filter:url(#filter1672)"
     d="m 66.941441,48.188083 14.398926,62.618617 -9.376064,13.72923 -10.380601,-3.01371 -5.022892,-5.02291 4.018296,-8.37146 7.032054,7.70174 5.357738,-13.39435 -2.678884,-10.380626 -15.068646,-5.022897 -12.389764,28.128153 -7.701755,9.04118 -13.059492,46.21054 4.688022,18.75214 -16.408089,13.72919 48.554527,27.79329 -10.045751,-30.807 24.444677,-16.74298 17.412695,25.44929 -6.697171,79.69643 L 139.60587,197.53519 125.87664,90.380326 92.390726,45.509259 58.235098,8.0050039 Z"
     id="path1668" />
  <path
     style="fill:none;stroke:#39ffff;stroke-width:3.80789;stroke-linecap:butt;stroke-linejoin:miter;stroke-miterlimit:4.6;stroke-dasharray:none;stroke-opacity:1"
     d="m 66.941441,48.188083 14.398926,62.618617 -9.376064,13.72923 -10.380601,-3.01371 -5.022892,-5.02291 4.018296,-8.37146 7.032054,7.70174 5.357738,-13.39435 -2.678884,-10.380626 -15.068646,-5.022897 -12.389764,28.128153 -7.701755,9.04118 -13.059492,46.21054 4.688022,18.75214 -16.408089,13.72919 48.554527,27.79329 -10.045751,-30.807 24.444677,-16.74298 17.412695,25.44929 -6.697171,79.69643 L 139.60587,197.53519 125.87664,90.380326 92.390726,45.509259 58.235098,8.0050039 Z"
     id="path1674" />
  <path
     style="opacity:1;fill:none;stroke:#39ffff;stroke-width:4.15363;stroke-linecap:round;stroke-linejoin:round;stroke-dasharray:none;paint-order:markers fill stroke;stroke-opacity:1;filter:url(#filter3157)"
     id="path3153"
     sodipodi:type="arc"
     sodipodi:cx="78.65567"
     sodipodi:cy="142.83685"
     sodipodi:rx="161.80969"
     sodipodi:ry="161.80969"
     sodipodi:start="3.1744841"
     sodipodi:end="3.1182876"
     sodipodi:open="true"
     sodipodi:arc-type="arc"
     d="M -83.066503,137.51566 A 161.80969,161.80969 0 0 1 81.70436,-18.944116 161.80969,161.80969 0 0 1 240.4635,143.61244 161.80969,161.80969 0 0 1 80.153348,304.63961 161.80969,161.80969 0 0 1 -83.110083,146.6075" />
  <path
     style="opacity:1;fill:none;stroke:#39ffff;stroke-width:4.15363;stroke-linecap:round;stroke-linejoin:round;stroke-dasharray:none;paint-order:markers fill stroke;stroke-opacity:1;filter:url(#filter3163)"
     id="path3159"
     sodipodi:type="arc"
     sodipodi:cx="78.65567"
     sodipodi:cy="142.83685"
     sodipodi:rx="161.80969"
     sodipodi:ry="161.80969"
     sodipodi:start="3.1744841"
     sodipodi:end="3.1182876"
     sodipodi:open="true"
     sodipodi:arc-type="arc"
     d="M -83.066503,137.51566 A 161.80969,161.80969 0 0 1 81.70436,-18.944116 161.80969,161.80969 0 0 1 240.4635,143.61244 161.80969,161.80969 0 0 1 80.153348,304.63961 161.80969,161.80969 0 0 1 -83.110083,146.6075" />
</svg>
